<svg id="Layer_1" data-name="Layer 1" xmlns="http://www.w3.org/2000/svg" xmlns:xlink="http://www.w3.org/1999/xlink" viewBox="0 0 32 32"><defs><style>.cls-1{fill:none;}.cls-2{isolation:isolate;}.cls-3{clip-path:url(#clip-path);}.cls-4{fill:#fff;}.cls-5{clip-path:url(#clip-path-2);}.cls-6{clip-path:url(#clip-path-3);}</style><clipPath id="clip-path"><polygon class="cls-1" points="16.49 25.19 6.07 25.5 3.62 9.77 14.04 9.47 16.49 25.19"/></clipPath><clipPath id="clip-path-2"><polygon class="cls-1" points="14.04 9.47 3.62 9.77 15.51 6.81 25.93 6.5 14.04 9.47"/></clipPath><clipPath id="clip-path-3"><polygon class="cls-1" points="25.93 6.5 28.38 22.23 16.49 25.19 14.04 9.47 25.93 6.5"/></clipPath></defs><g class="cls-2"><g class="cls-3"><path class="cls-4" d="M13.77,20.34c.16,1.08-.28,2-1,2s-1.44-.85-1.61-1.93.28-2,1-2,1.44.85,1.61,1.94m-.92-5.9c.17,1.09-.28,2-1,2s-1.43-.84-1.6-1.92.27-2,1-2,1.44.83,1.61,1.92m-3,6c.17,1.08-.28,2-1,2s-1.44-.84-1.61-1.92.28-2,1-2,1.44.84,1.61,1.93M9,14.55c.17,1.09-.28,2-1,2s-1.43-.83-1.6-1.92.28-2,1-2,1.45.84,1.62,1.92M3.62,9.77,6.07,25.49l10.42-.3L14,9.47l-10.42.3"/></g></g><g class="cls-2"><g class="cls-5"><path class="cls-4" d="M15.71,8.77a17.26,17.26,0,0,1-2.79.41c-.72,0-.64-.13.19-.34a17.15,17.15,0,0,1,2.78-.41c.72,0,.64.13-.18.34m5.95-1.49a15.42,15.42,0,0,1-2.79.41c-.72,0-.64-.12.18-.33A15.42,15.42,0,0,1,21.84,7c.72,0,.64.13-.18.33m-5.58.82a15.3,15.3,0,0,1-2.79.41c-.72,0-.64-.13.19-.33a15.17,15.17,0,0,1,2.79-.41c.71,0,.63.13-.19.33m-5.58.82a16.22,16.22,0,0,1-2.79.41C7,9.35,7.07,9.2,7.9,9a16.05,16.05,0,0,1,2.78-.4c.72,0,.64.12-.18.33m5.95-1.48a16.3,16.3,0,0,1-2.79.4c-.72,0-.64-.12.18-.33a16.36,16.36,0,0,1,2.79-.41c.72,0,.64.13-.18.34m-.93-.63-11.9,3,10.43-.3,11.89-3-10.42.31"/></g></g><g class="cls-2"><g class="cls-6"><path class="cls-4" d="M21.52,17.81c-.82.21-1.63-.51-1.8-1.59a2,2,0,0,1,1.19-2.34c.81-.2,1.62.51,1.79,1.6a2,2,0,0,1-1.18,2.33m4.42-11.3L14,9.47l2.45,15.72,11.89-3L25.94,6.51"/></g></g></svg>