<svg xmlns="http://www.w3.org/2000/svg" viewBox="0 0 8.93 7.05"><defs><style>.cls-1{fill:#fff;}</style></defs><g id="Layer_2" data-name="Layer 2"><g id="Layer_1-2" data-name="Layer 1"><path class="cls-1" d="M3.77,6H2V4.09h.87l-1.22-2a.23.23,0,0,0-.4,0L0,4.09H.89V6A1.09,1.09,0,0,0,2,7.05h3.3V6Z"/><path class="cls-1" d="M6.93,0a2,2,0,1,0,2,2A2,2,0,0,0,6.93,0Zm.4,3.34H6.71V1.16H6.18V.66H7.33Z"/><path class="cls-1" d="M7.37,4.75v-1H6.27v1H5.4L6.51,6.58a.37.37,0,0,0,.63,0L8.26,4.75Z"/><path class="cls-1" d="M5.29,1.78H3v1.1H5.29Z"/></g></g></svg>