<svg id="Layer_1" data-name="Layer 1" xmlns="http://www.w3.org/2000/svg" viewBox="0 0 32 32"><defs><style>.cls-1{fill:#fff;}</style></defs><path class="cls-1" d="M25.72,14.55a1,1,0,0,0-.7-.29H23.54a9,9,0,0,0-.3-1,8.75,8.75,0,0,0-.42-.92L24,11.2a.92.92,0,0,0,.29-.68A.94.94,0,0,0,24,9.83L22.54,8.4a1,1,0,0,0-1.38,0L20.1,9.46A5.56,5.56,0,0,0,19.2,9a8.48,8.48,0,0,0-.95-.37V7a1,1,0,0,0-.29-.7A.94.94,0,0,0,17.27,6h-2a1,1,0,0,0-.69.28,1,1,0,0,0-.29.7V8.46a7.45,7.45,0,0,0-1,.3,9.59,9.59,0,0,0-.91.42L11.2,8a.92.92,0,0,0-.68-.29A.94.94,0,0,0,9.83,8L8.4,9.46a1,1,0,0,0,0,1.38L9.46,11.9a5.56,5.56,0,0,0-.49.9,8.48,8.48,0,0,0-.37.95H7a1,1,0,0,0-.7.29.94.94,0,0,0-.28.69v2a1,1,0,0,0,.28.69,1,1,0,0,0,.7.29H8.46a7.45,7.45,0,0,0,.3,1q.2.48.42.93L8,20.8a.92.92,0,0,0-.29.68.94.94,0,0,0,.29.69l1.43,1.45a1,1,0,0,0,1.38,0l1.06-1.08a5.56,5.56,0,0,0,.9.49,8.48,8.48,0,0,0,.95.37V25a1,1,0,0,0,.29.7.94.94,0,0,0,.69.28h2a1,1,0,0,0,.69-.28,1,1,0,0,0,.29-.7V23.54a7.45,7.45,0,0,0,1-.3q.48-.19.93-.42L20.8,24a.93.93,0,0,0,.69.29.91.91,0,0,0,.68-.29l1.45-1.43a1,1,0,0,0,0-1.38L22.54,20.1a5.56,5.56,0,0,0,.49-.9,8.48,8.48,0,0,0,.37-.95H25a1,1,0,0,0,.7-.29.94.94,0,0,0,.28-.69v-2A1,1,0,0,0,25.72,14.55Zm-6,3a3.93,3.93,0,0,1-2.12,2.12,4,4,0,0,1-3.1,0,3.93,3.93,0,0,1-2.12-2.12,4,4,0,0,1,0-3.1,3.93,3.93,0,0,1,2.12-2.12,4,4,0,0,1,3.1,0,3.93,3.93,0,0,1,2.12,2.12,4,4,0,0,1,0,3.1Z"/></svg>