<?xml version="1.0" encoding="UTF-8"?>
<svg viewBox="0 0 8.29 5.73" xmlns="http://www.w3.org/2000/svg">
<defs>
<style>.cls-1{fill:#fff;}</style>
</defs>
<path class="cls-1" d="M6.34,1.7a.16.16,0,0,1,.24.16v0c0,.14.09.19.21.12l1.42-.85a.14.14,0,0,0,0-.26L6.79,0C6.67,0,6.58,0,6.58.15V.26A.41.41,0,0,1,6.34.6,11.91,11.91,0,0,0,3,2.52,8.3,8.3,0,0,1,.24,4.11.39.39,0,0,0,0,4.45v.6a.17.17,0,0,0,.23.17,12.35,12.35,0,0,0,3.57-2A8.13,8.13,0,0,1,6.34,1.7Z"/>
<path class="cls-1" d="M3,2.08a.24.24,0,0,0,0-.35L.24.56A.19.19,0,0,0,0,.75v.61a.35.35,0,0,0,.24.31l2,.88a.26.26,0,0,0,.36,0Z"/>
<path class="cls-1" d="M6.58,3.94a.18.18,0,0,1-.25.18l-1.85-.8a.26.26,0,0,0-.36,0l-.4.45a.23.23,0,0,0,0,.34L6.33,5.23a.35.35,0,0,1,.25.32v0c0,.14.09.19.21.12l1.42-.85a.14.14,0,0,0,0-.26L6.79,3.72c-.12-.07-.21,0-.21.12Z"/>
</svg>
