<svg xmlns="http://www.w3.org/2000/svg" viewBox="0 0 9.45 10.04"><defs><style>.cls-1{fill:#fff;}</style></defs><g id="Layer_2" data-name="Layer 2"><g id="Layer_1-2" data-name="Layer 1"><path class="cls-1" d="M0,3.05V7a.25.25,0,0,0,.25.25H1.83L4.9,10a.26.26,0,0,0,.43-.19V.25A.25.25,0,0,0,4.92.06L1.83,2.81H.25A.25.25,0,0,0,0,3.05Z"/><path class="cls-1" d="M6.81,2.81l-.14-.09v.92a1.93,1.93,0,0,1,0,2.78v.92l.14-.09a2.67,2.67,0,0,0,0-4.44Z"/><path class="cls-1" d="M9.45,5A4.1,4.1,0,0,0,6.67,1.15v.77a3.38,3.38,0,0,1,0,6.2v.77A4.1,4.1,0,0,0,9.45,5Z"/></g></g></svg>